<?xml version="1.0" standalone="no"?>
<!DOCTYPE svg PUBLIC "-//W3C//DTD SVG 20010904//EN"
 "http://www.w3.org/TR/2001/REC-SVG-20010904/DTD/svg10.dtd">
<svg version="1.0" xmlns="http://www.w3.org/2000/svg"
 width="1120.000000pt" height="1120.000000pt" viewBox="0 0 1120.000000 1120.000000"
 preserveAspectRatio="xMidYMid meet">
<metadata>
Created by potrace 1.14, written by Peter Selinger 2001-2017
</metadata>
<g transform="translate(0.000000,1120.000000) scale(0.100000,-0.100000)"
fill="#000000" stroke="none">
<path d="M5504 10942 c-84 -97 -299 -348 -479 -557 -180 -209 -427 -496 -549
-638 l-221 -259 -1001 7 -1002 7 6 -1149 5 -1149 -189 -213 c-104 -118 -211
-240 -239 -272 -27 -31 -259 -294 -515 -584 -256 -289 -465 -530 -465 -535 0
-5 209 -246 465 -535 256 -290 488 -553 515 -584 28 -32 135 -154 239 -272
l189 -213 -5 -1149 -6 -1149 1002 7 1001 7 50 -59 c28 -33 199 -233 380 -443
182 -211 473 -550 649 -754 175 -204 322 -372 326 -374 7 -3 288 321 1131
1302 l282 329 1000 -7 1000 -8 -6 1149 -6 1148 704 798 c388 438 705 802 705
807 0 6 -317 369 -705 808 l-704 797 6 1148 6 1149 -1000 -8 -1000 -7 -282
329 c-784 912 -1123 1304 -1129 1304 -4 0 -75 -80 -158 -178z m507 -472 c163
-190 451 -525 641 -745 l344 -400 309 0 c171 0 600 1 955 3 l645 3 -4 -1094
-4 -1094 595 -674 c327 -371 632 -715 677 -766 44 -50 81 -97 81 -103 0 -6
-37 -53 -81 -103 -45 -51 -350 -395 -677 -766 l-595 -674 4 -1094 4 -1094
-645 3 c-355 2 -784 3 -955 3 l-309 0 -504 -585 c-277 -322 -576 -670 -664
-773 l-162 -188 -32 33 c-18 18 -200 229 -406 468 -205 240 -492 574 -638 744
l-265 309 -410 -7 c-225 -3 -653 -6 -950 -6 l-540 -1 3 1093 3 1093 -138 156
c-786 889 -1218 1382 -1218 1389 0 8 384 446 1218 1389 l138 156 -3 1093 -3
1093 540 -1 c297 0 725 -3 950 -6 l410 -7 265 309 c146 170 433 504 639 744
205 239 387 450 405 468 l31 33 25 -28 c14 -16 158 -184 321 -373z"/>
<path d="M5179 8982 c-108 -69 -296 -317 -405 -535 -135 -267 -194 -498 -194
-747 1 -151 15 -239 66 -390 33 -100 38 -130 42 -231 5 -153 -11 -211 -132
-465 -51 -110 -105 -232 -120 -272 -36 -103 -66 -255 -76 -397 -9 -137 -23
-176 -70 -195 -42 -17 -115 -14 -149 6 -93 55 -128 308 -96 691 18 219 15 312
-11 334 -35 29 -108 -95 -217 -371 -178 -450 -257 -871 -257 -1365 0 -556 101
-1014 329 -1490 239 -499 538 -814 927 -977 123 -51 394 -119 594 -149 203
-30 526 -33 698 -6 509 80 876 295 1147 672 36 50 105 171 155 270 103 207
173 407 244 695 84 343 111 565 103 873 -9 382 -48 528 -335 1241 -56 137
-133 349 -172 470 -40 122 -77 232 -84 246 -15 31 -38 36 -61 14 -16 -16 -17
-34 -12 -173 3 -92 16 -226 32 -326 90 -578 106 -752 86 -885 -14 -91 -31
-120 -70 -120 -46 0 -53 19 -62 172 -11 171 -47 358 -96 487 -46 125 -59 149
-139 266 -167 245 -241 495 -214 731 18 169 53 276 166 516 83 175 99 239 66
257 -23 12 -55 -8 -193 -125 -195 -165 -348 -352 -443 -542 -64 -127 -91 -216
-131 -432 -42 -221 -86 -390 -124 -475 -55 -121 -142 -185 -207 -154 -88 43
-111 224 -78 633 31 384 0 500 -245 929 -166 290 -218 435 -242 675 -14 147
-2 317 37 515 34 169 28 182 -57 129z"/>
</g>
</svg>
